
<svg width="373" height="703" viewBox="0 0 373 703" fill="none" xmlns="http://www.w3.org/2000/svg">
<g filter="url(#filter0_d_3_276)">
<path d="M368.847 692.393L366.025 538.578L364.614 536L6.41887 537.719L4 692.393L7.62831 694.97H366.428L368.847 692.393Z" fill="url(#paint0_linear_3_276)"/>
</g>
<g filter="url(#filter1_d_3_276)">
<path d="M24.795 467.937L6.63336 537.594L365.023 535.457L325.067 468.365L24.795 467.937Z" fill="url(#paint1_linear_3_276)"/>
</g>
<g filter="url(#filter2_d_3_276)">
<path d="M167.245 553.833C167.245 552.728 166.349 551.833 165.245 551.833C164.14 551.833 163.245 552.728 163.245 553.833L167.245 553.833ZM163.245 553.833L163.245 676.906L167.245 676.906L167.245 553.833L163.245 553.833Z" fill="url(#paint2_radial_3_276)"/>
</g>
<g filter="url(#filter3_d_3_276)">
<path d="M15.4944 553.833C15.4944 552.728 14.599 551.833 13.4944 551.833C12.3898 551.833 11.4944 552.728 11.4944 553.833L15.4944 553.833ZM11.4944 553.833L11.4944 676.906L15.4944 676.906L15.4944 553.833L11.4944 553.833Z" fill="url(#paint3_radial_3_276)"/>
</g>
<g filter="url(#filter4_d_3_276)">
<path d="M183.389 553.833C183.389 552.728 182.493 551.833 181.389 551.833C180.284 551.833 179.389 552.728 179.389 553.833L183.389 553.833ZM179.389 553.833L179.389 676.906L183.389 676.906L183.389 553.833L179.389 553.833Z" fill="url(#paint4_radial_3_276)"/>
</g>
<g filter="url(#filter5_d_3_276)">
<path d="M361.776 553.833C361.776 552.728 360.881 551.833 359.776 551.833C358.671 551.833 357.776 552.728 357.776 553.833L361.776 553.833ZM357.776 553.833L357.776 676.906L361.776 676.906L361.776 553.833L357.776 553.833Z" fill="url(#paint5_radial_3_276)"/>
</g>
<g filter="url(#filter6_i_3_276)">
<rect x="28.8309" y="558.961" width="122.692" height="23.931" fill="#58341E"/>
</g>
<path d="M25.6022 266.218L31.6397 277.771V269.241L317.011 270.069V273.492L323.049 266.233L319.023 37.7327C319.023 37.7327 260.258 -2.00984 170.501 0.079592C80.7445 2.16902 28.0172 37.7327 28.0172 37.7327L25.6022 266.218Z" fill="#110D0A"/>
<path d="M319.818 37.6601L321.031 102.562C321.031 102.562 272.597 61.5909 172.507 64.1549C72.4182 66.719 27.2166 100.051 27.2166 100.051L27.618 38.0874C27.6186 35.5232 75.2418 1.7633 172.507 0.054154C269.773 -1.65499 319.818 37.6601 319.818 37.6601Z" fill="url(#paint6_radial_3_276)"/>
<path d="M321.031 102.562L321.838 171.791C321.838 171.791 274.215 140.595 176.949 143.159C79.6835 145.723 26.4094 173.073 26.4094 173.073L27.6201 99.9976C27.6208 97.4333 68.383 67.5195 172.913 64.1009C277.443 60.6823 321.031 102.562 321.031 102.562Z" fill="url(#paint7_radial_3_276)"/>
<path d="M242.734 85.468L235.47 84.6133L231.837 116.664L231.03 117.091L233.452 120.51L259.685 127.775L268.968 94.0148L242.734 85.468Z" fill="#26100B"/>
<path d="M233.452 120.51L242.734 85.8953L268.968 94.0148L259.282 127.775L233.452 120.51Z" fill="#4B1F1C"/>
<path d="M260.453 126.042L254.511 130.55L272.048 156.955L271.718 157.844L275.677 158.672L299.772 145.502L285.358 113.826L260.453 126.042Z" fill="#290E07"/>
<path d="M275.677 158.672L260.723 126.36L285.358 113.826L299.472 145.788L275.677 158.672Z" fill="#38120F"/>
<path d="M240.014 138.811L237.151 145.932L265.095 158.838L265.249 159.78L269.038 158.308L283.158 133.796L255.294 114.668L240.014 138.811Z" fill="#26100B"/>
<path d="M269.038 158.308L240.401 138.934L255.294 114.668L283.042 134.206L269.038 158.308Z" fill="#4B1F1C"/>
<path d="M165.648 102.562L133.412 101.707L130.536 134.931L158.06 146.15L174.081 138.815L176.545 112.063L165.648 102.562Z" fill="#4B4523"/>
<path d="M165.648 102.562L133.361 101.707L130.536 134.612L163.227 134.185L165.648 102.562Z" fill="#9E915C"/>
<path d="M176.545 111.963L165.648 102.562L163.227 134.185L174.124 138.885L176.545 111.963Z" fill="#412726"/>
<path d="M70.8045 117.946L55.0644 127.347V157.688L73.226 153.415L97.4415 149.142V117.946H70.8045Z" fill="#394030"/>
<path d="M70.8045 117.946L55.0644 127.347V157.688L71.6116 153.415L70.8045 117.946Z" fill="#484D38"/>
<path d="M107.935 87.6047L82.5086 104.271L91.3876 132.903L103.899 143.159L132.15 122.647L120.85 94.4421L107.935 87.6047Z" fill="#3A3F28"/>
<path d="M107.935 87.6047L82.5086 104.271L91.3876 132.903L118.025 116.236L107.935 87.6047Z" fill="#A2985B"/>
<path d="M195.499 111.72L188.422 125.702L202.061 155.71L229.574 146.023L238.667 132.127L222.989 100.492L195.499 111.72Z" fill="#402F1F"/>
<path d="M210.26 141.947L195.499 111.72L222.989 100.492L238.209 131.423L210.26 141.947Z" fill="#A23A2F"/>
<path d="M210.26 141.947L202.061 155.71L229.574 146.023L238.438 131.775L210.26 141.947Z" fill="#200F0E"/>
<path d="M207.218 73.9298L193.9 81.1946L189.057 114.1L216.905 122.647L231.837 116.664L235.873 81.1946L207.218 73.9298Z" fill="#402F1F"/>
<path d="M203.182 107.69L207.218 73.9298L235.873 81.1946L231.838 115.809L203.182 107.69Z" fill="#A23A2F"/>
<path d="M203.182 107.69L189.057 114.1L216.905 122.647L231.837 116.236L203.182 107.69Z" fill="#200F0E"/>
<g filter="url(#filter7_i_3_276)">
<path d="M31.6371 269.224L30.4453 468.789L321.031 469.219L317.793 269.224H31.6371Z" fill="url(#paint8_linear_3_276)"/>
</g>
<g filter="url(#filter8_i_3_276)">
<rect x="43.3602" y="435.032" width="76.6824" height="19.6576" fill="#53331E"/>
</g>
<g filter="url(#filter9_i_3_276)">
<rect x="232.241" y="401.699" width="76.6824" height="19.6576" fill="#53331E"/>
</g>
<g filter="url(#filter10_i_3_276)">
<rect x="43.3602" y="367.512" width="76.6824" height="19.6576" fill="#53331E"/>
</g>
<g filter="url(#filter11_i_3_276)">
<rect x="43.3602" y="301.702" width="76.6824" height="19.6576" fill="#53331E"/>
</g>
<g filter="url(#filter12_i_3_276)">
<rect x="231.434" y="335.034" width="76.6824" height="19.6576" fill="#53331E"/>
</g>
<g filter="url(#filter13_i_3_276)">
<rect x="151.119" y="269.224" width="50.0454" height="199.995" fill="#473D1E"/>
</g>
<rect x="151.619" y="269.724" width="49.0454" height="198.995" stroke="#312D21"/>
<path d="M321.838 171.791L323.049 265.861C323.049 265.861 248.385 253.468 178.563 253.468C108.742 253.468 25.6022 265.433 25.6022 265.433L26.4094 173.073C26.41 170.508 65.5578 146.404 173.317 142.985C281.076 139.566 321.838 171.791 321.838 171.791Z" fill="url(#paint9_radial_3_276)"/>
<g filter="url(#filter14_d_3_276)">
<path d="M34.8848 190.166L29.6381 193.158V230.764L34.8848 244.011L39.3243 243.156L42.9566 232.473L47.3962 239.738H51.8357L61.1183 221.362V180.337L53.8536 182.902V219.653L49.4141 227.345L45.7818 221.362L46.589 185.466L40.1315 188.457V224.353L37.3064 232.473L34.8848 226.063V190.166Z" fill="url(#paint10_radial_3_276)" shape-rendering="crispEdges"/>
<path d="M302.062 182.902C300.179 182.189 296.331 180.765 296.009 180.765L306.098 212.388L296.009 238.028L303.677 240.165L309.731 220.935L312.959 243.156L318.61 245.293L312.152 214.525L318.61 191.448L314.977 189.739L309.731 207.687L302.062 182.902Z" fill="url(#paint11_radial_3_276)" shape-rendering="crispEdges"/>
<path fill-rule="evenodd" clip-rule="evenodd" d="M233.048 228.2V171.363L260.493 173.5L267.354 182.047V198.713L263.318 202.132L268.564 206.405V223.499L260.493 231.191L233.048 228.2ZM242.734 179.91V194.867L256.86 197.004L260.493 193.585V185.038L256.457 181.192L242.734 179.91ZM242.734 218.798V203.414H256.86L260.493 208.969V217.089L258.071 220.08L242.734 218.798Z" fill="url(#paint12_radial_3_276)" shape-rendering="crispEdges"/>
<path fill-rule="evenodd" clip-rule="evenodd" d="M269.775 183.329V224.353L276.233 233.755L291.569 236.746L296.816 231.191V188.884L290.358 179.055L276.233 176.491L269.775 183.329ZM279.058 191.448V220.08L281.076 223.499L288.34 225.208L290.358 223.499L289.551 191.448L287.13 189.739L281.076 188.03L279.058 191.448Z" fill="url(#paint13_radial_3_276)" shape-rendering="crispEdges"/>
<path fill-rule="evenodd" clip-rule="evenodd" d="M63.1362 195.722L73.6296 176.919H81.7014L93.4056 190.166V230.764L83.7194 231.618V217.516L71.2081 219.653V235.037L63.1362 236.319V195.722ZM71.2081 196.576V208.542L84.5266 205.978V194.867L77.2619 187.602L71.2081 196.576Z" fill="url(#paint14_radial_3_276)" shape-rendering="crispEdges"/>
<path fill-rule="evenodd" clip-rule="evenodd" d="M97.0379 174.782V230.764L106.724 229.482V206.833H113.989L121.657 229.482H134.168L125.289 203.841L134.168 195.722V179.055L124.079 169.227L97.0379 173.073V174.782ZM106.724 194.867V182.902L118.832 181.619L121.657 185.466V190.166L118.832 194.867H106.724Z" fill="url(#paint15_radial_3_276)" shape-rendering="crispEdges"/>
<path d="M34.8848 190.166L29.6381 193.158V230.764L34.8848 244.011L39.3243 243.156L42.9566 232.473L47.3962 239.738H51.8357L61.1183 221.362V180.337L53.8536 182.902V219.653L49.4141 227.345L45.7818 221.362L46.589 185.466L40.1315 188.457V224.353L37.3064 232.473L34.8848 226.063V190.166Z" stroke="black" stroke-opacity="0.6" shape-rendering="crispEdges"/>
<path d="M302.062 182.902C300.179 182.189 296.331 180.765 296.009 180.765L306.098 212.388L296.009 238.028L303.677 240.165L309.731 220.935L312.959 243.156L318.61 245.293L312.152 214.525L318.61 191.448L314.977 189.739L309.731 207.687L302.062 182.902Z" stroke="black" stroke-opacity="0.6" shape-rendering="crispEdges"/>
<path fill-rule="evenodd" clip-rule="evenodd" d="M233.048 228.2V171.363L260.493 173.5L267.354 182.047V198.713L263.318 202.132L268.564 206.405V223.499L260.493 231.191L233.048 228.2ZM242.734 179.91V194.867L256.86 197.004L260.493 193.585V185.038L256.457 181.192L242.734 179.91ZM242.734 218.798V203.414H256.86L260.493 208.969V217.089L258.071 220.08L242.734 218.798Z" stroke="black" stroke-opacity="0.6" shape-rendering="crispEdges"/>
<path fill-rule="evenodd" clip-rule="evenodd" d="M269.775 183.329V224.353L276.233 233.755L291.569 236.746L296.816 231.191V188.884L290.358 179.055L276.233 176.491L269.775 183.329ZM279.058 191.448V220.08L281.076 223.499L288.34 225.208L290.358 223.499L289.551 191.448L287.13 189.739L281.076 188.03L279.058 191.448Z" stroke="black" stroke-opacity="0.6" shape-rendering="crispEdges"/>
<path fill-rule="evenodd" clip-rule="evenodd" d="M63.1362 195.722L73.6296 176.919H81.7014L93.4056 190.166V230.764L83.7194 231.618V217.516L71.2081 219.653V235.037L63.1362 236.319V195.722ZM71.2081 196.576V208.542L84.5266 205.978V194.867L77.2619 187.602L71.2081 196.576Z" stroke="black" stroke-opacity="0.6" shape-rendering="crispEdges"/>
<path fill-rule="evenodd" clip-rule="evenodd" d="M97.0379 174.782V230.764L106.724 229.482V206.833H113.989L121.657 229.482H134.168L125.289 203.841L134.168 195.722V179.055L124.079 169.227L97.0379 173.073V174.782ZM106.724 194.867V182.902L118.832 181.619L121.657 185.466V190.166L118.832 194.867H106.724Z" stroke="black" stroke-opacity="0.6" shape-rendering="crispEdges"/>
</g>
<g filter="url(#filter15_d_3_276)">
<path d="M139.202 136.313L159.905 148.935V217.365L174.337 215.374L139.202 237.961V136.313Z" fill="#231F20"/>
<path d="M139.202 136.313L159.905 148.935V217.365L174.337 215.374L139.202 237.961V136.313Z" stroke="#231F20" stroke-width="1.32785"/>
<path d="M228.296 136.313L207.593 148.935V218.029L193.161 215.374L228.296 237.961V136.313Z" fill="#231F20"/>
<path d="M228.296 136.313L207.593 148.935V218.03L193.161 215.374L228.296 237.961V136.313Z" stroke="#231F20" stroke-width="1.32785"/>
<path d="M173.085 176.841H193.789V206.734L183.749 236.631L173.085 206.734V176.841Z" fill="#231F20"/>
<path d="M173.085 176.841H193.789V206.734L183.749 236.631L173.085 206.734V176.841Z" stroke="#231F20" stroke-width="1.32785"/>
</g>
<defs>
<filter id="filter0_d_3_276" x="0" y="536" width="372.847" height="166.97" filterUnits="userSpaceOnUse" color-interpolation-filters="sRGB">
<feFlood flood-opacity="0" result="BackgroundImageFix"/>
<feColorMatrix in="SourceAlpha" type="matrix" values="0 0 0 0 0 0 0 0 0 0 0 0 0 0 0 0 0 0 127 0" result="hardAlpha"/>
<feOffset dy="4"/>
<feGaussianBlur stdDeviation="2"/>
<feComposite in2="hardAlpha" operator="out"/>
<feColorMatrix type="matrix" values="0 0 0 0 0 0 0 0 0 0 0 0 0 0 0 0 0 0 0.25 0"/>
<feBlend mode="normal" in2="BackgroundImageFix" result="effect1_dropShadow_3_276"/>
<feBlend mode="normal" in="SourceGraphic" in2="effect1_dropShadow_3_276" result="shape"/>
</filter>
<filter id="filter1_d_3_276" x="2.63336" y="467.937" width="366.389" height="77.6564" filterUnits="userSpaceOnUse" color-interpolation-filters="sRGB">
<feFlood flood-opacity="0" result="BackgroundImageFix"/>
<feColorMatrix in="SourceAlpha" type="matrix" values="0 0 0 0 0 0 0 0 0 0 0 0 0 0 0 0 0 0 127 0" result="hardAlpha"/>
<feOffset dy="4"/>
<feGaussianBlur stdDeviation="2"/>
<feComposite in2="hardAlpha" operator="out"/>
<feColorMatrix type="matrix" values="0 0 0 0 0 0 0 0 0 0 0 0 0 0 0 0 0 0 0.25 0"/>
<feBlend mode="normal" in2="BackgroundImageFix" result="effect1_dropShadow_3_276"/>
<feBlend mode="normal" in="SourceGraphic" in2="effect1_dropShadow_3_276" result="shape"/>
</filter>
<filter id="filter2_d_3_276" x="159.245" y="551.833" width="12" height="133.074" filterUnits="userSpaceOnUse" color-interpolation-filters="sRGB">
<feFlood flood-opacity="0" result="BackgroundImageFix"/>
<feColorMatrix in="SourceAlpha" type="matrix" values="0 0 0 0 0 0 0 0 0 0 0 0 0 0 0 0 0 0 127 0" result="hardAlpha"/>
<feOffset dy="4"/>
<feGaussianBlur stdDeviation="2"/>
<feComposite in2="hardAlpha" operator="out"/>
<feColorMatrix type="matrix" values="0 0 0 0 0 0 0 0 0 0 0 0 0 0 0 0 0 0 0.25 0"/>
<feBlend mode="normal" in2="BackgroundImageFix" result="effect1_dropShadow_3_276"/>
<feBlend mode="normal" in="SourceGraphic" in2="effect1_dropShadow_3_276" result="shape"/>
</filter>
<filter id="filter3_d_3_276" x="7.49438" y="551.833" width="12" height="133.074" filterUnits="userSpaceOnUse" color-interpolation-filters="sRGB">
<feFlood flood-opacity="0" result="BackgroundImageFix"/>
<feColorMatrix in="SourceAlpha" type="matrix" values="0 0 0 0 0 0 0 0 0 0 0 0 0 0 0 0 0 0 127 0" result="hardAlpha"/>
<feOffset dy="4"/>
<feGaussianBlur stdDeviation="2"/>
<feComposite in2="hardAlpha" operator="out"/>
<feColorMatrix type="matrix" values="0 0 0 0 0 0 0 0 0 0 0 0 0 0 0 0 0 0 0.25 0"/>
<feBlend mode="normal" in2="BackgroundImageFix" result="effect1_dropShadow_3_276"/>
<feBlend mode="normal" in="SourceGraphic" in2="effect1_dropShadow_3_276" result="shape"/>
</filter>
<filter id="filter4_d_3_276" x="175.389" y="551.833" width="12" height="133.074" filterUnits="userSpaceOnUse" color-interpolation-filters="sRGB">
<feFlood flood-opacity="0" result="BackgroundImageFix"/>
<feColorMatrix in="SourceAlpha" type="matrix" values="0 0 0 0 0 0 0 0 0 0 0 0 0 0 0 0 0 0 127 0" result="hardAlpha"/>
<feOffset dy="4"/>
<feGaussianBlur stdDeviation="2"/>
<feComposite in2="hardAlpha" operator="out"/>
<feColorMatrix type="matrix" values="0 0 0 0 0 0 0 0 0 0 0 0 0 0 0 0 0 0 0.25 0"/>
<feBlend mode="normal" in2="BackgroundImageFix" result="effect1_dropShadow_3_276"/>
<feBlend mode="normal" in="SourceGraphic" in2="effect1_dropShadow_3_276" result="shape"/>
</filter>
<filter id="filter5_d_3_276" x="353.776" y="551.833" width="12" height="133.074" filterUnits="userSpaceOnUse" color-interpolation-filters="sRGB">
<feFlood flood-opacity="0" result="BackgroundImageFix"/>
<feColorMatrix in="SourceAlpha" type="matrix" values="0 0 0 0 0 0 0 0 0 0 0 0 0 0 0 0 0 0 127 0" result="hardAlpha"/>
<feOffset dy="4"/>
<feGaussianBlur stdDeviation="2"/>
<feComposite in2="hardAlpha" operator="out"/>
<feColorMatrix type="matrix" values="0 0 0 0 0 0 0 0 0 0 0 0 0 0 0 0 0 0 0.25 0"/>
<feBlend mode="normal" in2="BackgroundImageFix" result="effect1_dropShadow_3_276"/>
<feBlend mode="normal" in="SourceGraphic" in2="effect1_dropShadow_3_276" result="shape"/>
</filter>
<filter id="filter6_i_3_276" x="28.8309" y="558.961" width="122.692" height="27.931" filterUnits="userSpaceOnUse" color-interpolation-filters="sRGB">
<feFlood flood-opacity="0" result="BackgroundImageFix"/>
<feBlend mode="normal" in="SourceGraphic" in2="BackgroundImageFix" result="shape"/>
<feColorMatrix in="SourceAlpha" type="matrix" values="0 0 0 0 0 0 0 0 0 0 0 0 0 0 0 0 0 0 127 0" result="hardAlpha"/>
<feOffset dy="4"/>
<feGaussianBlur stdDeviation="2"/>
<feComposite in2="hardAlpha" operator="arithmetic" k2="-1" k3="1"/>
<feColorMatrix type="matrix" values="0 0 0 0 0 0 0 0 0 0 0 0 0 0 0 0 0 0 0.25 0"/>
<feBlend mode="normal" in2="shape" result="effect1_innerShadow_3_276"/>
</filter>
<filter id="filter7_i_3_276" x="30.4453" y="269.224" width="290.586" height="203.995" filterUnits="userSpaceOnUse" color-interpolation-filters="sRGB">
<feFlood flood-opacity="0" result="BackgroundImageFix"/>
<feBlend mode="normal" in="SourceGraphic" in2="BackgroundImageFix" result="shape"/>
<feColorMatrix in="SourceAlpha" type="matrix" values="0 0 0 0 0 0 0 0 0 0 0 0 0 0 0 0 0 0 127 0" result="hardAlpha"/>
<feOffset dy="4"/>
<feGaussianBlur stdDeviation="2"/>
<feComposite in2="hardAlpha" operator="arithmetic" k2="-1" k3="1"/>
<feColorMatrix type="matrix" values="0 0 0 0 0 0 0 0 0 0 0 0 0 0 0 0 0 0 0.25 0"/>
<feBlend mode="normal" in2="shape" result="effect1_innerShadow_3_276"/>
</filter>
<filter id="filter8_i_3_276" x="43.3602" y="435.032" width="76.6824" height="23.6576" filterUnits="userSpaceOnUse" color-interpolation-filters="sRGB">
<feFlood flood-opacity="0" result="BackgroundImageFix"/>
<feBlend mode="normal" in="SourceGraphic" in2="BackgroundImageFix" result="shape"/>
<feColorMatrix in="SourceAlpha" type="matrix" values="0 0 0 0 0 0 0 0 0 0 0 0 0 0 0 0 0 0 127 0" result="hardAlpha"/>
<feOffset dy="4"/>
<feGaussianBlur stdDeviation="2"/>
<feComposite in2="hardAlpha" operator="arithmetic" k2="-1" k3="1"/>
<feColorMatrix type="matrix" values="0 0 0 0 0 0 0 0 0 0 0 0 0 0 0 0 0 0 0.25 0"/>
<feBlend mode="normal" in2="shape" result="effect1_innerShadow_3_276"/>
</filter>
<filter id="filter9_i_3_276" x="232.241" y="401.699" width="76.6824" height="23.6576" filterUnits="userSpaceOnUse" color-interpolation-filters="sRGB">
<feFlood flood-opacity="0" result="BackgroundImageFix"/>
<feBlend mode="normal" in="SourceGraphic" in2="BackgroundImageFix" result="shape"/>
<feColorMatrix in="SourceAlpha" type="matrix" values="0 0 0 0 0 0 0 0 0 0 0 0 0 0 0 0 0 0 127 0" result="hardAlpha"/>
<feOffset dy="4"/>
<feGaussianBlur stdDeviation="2"/>
<feComposite in2="hardAlpha" operator="arithmetic" k2="-1" k3="1"/>
<feColorMatrix type="matrix" values="0 0 0 0 0 0 0 0 0 0 0 0 0 0 0 0 0 0 0.25 0"/>
<feBlend mode="normal" in2="shape" result="effect1_innerShadow_3_276"/>
</filter>
<filter id="filter10_i_3_276" x="43.3602" y="367.512" width="76.6824" height="23.6576" filterUnits="userSpaceOnUse" color-interpolation-filters="sRGB">
<feFlood flood-opacity="0" result="BackgroundImageFix"/>
<feBlend mode="normal" in="SourceGraphic" in2="BackgroundImageFix" result="shape"/>
<feColorMatrix in="SourceAlpha" type="matrix" values="0 0 0 0 0 0 0 0 0 0 0 0 0 0 0 0 0 0 127 0" result="hardAlpha"/>
<feOffset dy="4"/>
<feGaussianBlur stdDeviation="2"/>
<feComposite in2="hardAlpha" operator="arithmetic" k2="-1" k3="1"/>
<feColorMatrix type="matrix" values="0 0 0 0 0 0 0 0 0 0 0 0 0 0 0 0 0 0 0.25 0"/>
<feBlend mode="normal" in2="shape" result="effect1_innerShadow_3_276"/>
</filter>
<filter id="filter11_i_3_276" x="43.3602" y="301.702" width="76.6824" height="23.6576" filterUnits="userSpaceOnUse" color-interpolation-filters="sRGB">
<feFlood flood-opacity="0" result="BackgroundImageFix"/>
<feBlend mode="normal" in="SourceGraphic" in2="BackgroundImageFix" result="shape"/>
<feColorMatrix in="SourceAlpha" type="matrix" values="0 0 0 0 0 0 0 0 0 0 0 0 0 0 0 0 0 0 127 0" result="hardAlpha"/>
<feOffset dy="4"/>
<feGaussianBlur stdDeviation="2"/>
<feComposite in2="hardAlpha" operator="arithmetic" k2="-1" k3="1"/>
<feColorMatrix type="matrix" values="0 0 0 0 0 0 0 0 0 0 0 0 0 0 0 0 0 0 0.25 0"/>
<feBlend mode="normal" in2="shape" result="effect1_innerShadow_3_276"/>
</filter>
<filter id="filter12_i_3_276" x="231.434" y="335.034" width="76.6824" height="23.6576" filterUnits="userSpaceOnUse" color-interpolation-filters="sRGB">
<feFlood flood-opacity="0" result="BackgroundImageFix"/>
<feBlend mode="normal" in="SourceGraphic" in2="BackgroundImageFix" result="shape"/>
<feColorMatrix in="SourceAlpha" type="matrix" values="0 0 0 0 0 0 0 0 0 0 0 0 0 0 0 0 0 0 127 0" result="hardAlpha"/>
<feOffset dy="4"/>
<feGaussianBlur stdDeviation="2"/>
<feComposite in2="hardAlpha" operator="arithmetic" k2="-1" k3="1"/>
<feColorMatrix type="matrix" values="0 0 0 0 0 0 0 0 0 0 0 0 0 0 0 0 0 0 0.25 0"/>
<feBlend mode="normal" in2="shape" result="effect1_innerShadow_3_276"/>
</filter>
<filter id="filter13_i_3_276" x="151.119" y="269.224" width="50.0453" height="203.995" filterUnits="userSpaceOnUse" color-interpolation-filters="sRGB">
<feFlood flood-opacity="0" result="BackgroundImageFix"/>
<feBlend mode="normal" in="SourceGraphic" in2="BackgroundImageFix" result="shape"/>
<feColorMatrix in="SourceAlpha" type="matrix" values="0 0 0 0 0 0 0 0 0 0 0 0 0 0 0 0 0 0 127 0" result="hardAlpha"/>
<feOffset dy="4"/>
<feGaussianBlur stdDeviation="2"/>
<feComposite in2="hardAlpha" operator="arithmetic" k2="-1" k3="1"/>
<feColorMatrix type="matrix" values="0 0 0 0 0 0 0 0 0 0 0 0 0 0 0 0 0 0 0.25 0"/>
<feBlend mode="normal" in2="shape" result="effect1_innerShadow_3_276"/>
</filter>
<filter id="filter14_d_3_276" x="20.9381" y="168.697" width="306.548" height="94.5866" filterUnits="userSpaceOnUse" color-interpolation-filters="sRGB">
<feFlood flood-opacity="0" result="BackgroundImageFix"/>
<feColorMatrix in="SourceAlpha" type="matrix" values="0 0 0 0 0 0 0 0 0 0 0 0 0 0 0 0 0 0 127 0" result="hardAlpha"/>
<feOffset dy="9"/>
<feGaussianBlur stdDeviation="4.1"/>
<feComposite in2="hardAlpha" operator="out"/>
<feColorMatrix type="matrix" values="0 0 0 0 0 0 0 0 0 0 0 0 0 0 0 0 0 0 0.8 0"/>
<feBlend mode="normal" in2="BackgroundImageFix" result="effect1_dropShadow_3_276"/>
<feBlend mode="normal" in="SourceGraphic" in2="effect1_dropShadow_3_276" result="shape"/>
</filter>
<filter id="filter15_d_3_276" x="134.538" y="135.131" width="98.4226" height="112.046" filterUnits="userSpaceOnUse" color-interpolation-filters="sRGB">
<feFlood flood-opacity="0" result="BackgroundImageFix"/>
<feColorMatrix in="SourceAlpha" type="matrix" values="0 0 0 0 0 0 0 0 0 0 0 0 0 0 0 0 0 0 127 0" result="hardAlpha"/>
<feOffset dy="4"/>
<feGaussianBlur stdDeviation="2"/>
<feComposite in2="hardAlpha" operator="out"/>
<feColorMatrix type="matrix" values="0 0 0 0 0 0 0 0 0 0 0 0 0 0 0 0 0 0 0.25 0"/>
<feBlend mode="normal" in2="BackgroundImageFix" result="effect1_dropShadow_3_276"/>
<feBlend mode="normal" in="SourceGraphic" in2="effect1_dropShadow_3_276" result="shape"/>
</filter>
<linearGradient id="paint0_linear_3_276" x1="182.997" y1="509.362" x2="182.997" y2="721.179" gradientUnits="userSpaceOnUse">
<stop stop-color="#68614E"/>
<stop offset="1" stop-color="#4E4838"/>
</linearGradient>
<linearGradient id="paint1_linear_3_276" x1="-11.1247" y1="537.594" x2="346.676" y2="471.388" gradientUnits="userSpaceOnUse">
<stop stop-color="#453827"/>
<stop offset="1" stop-color="#3A2520"/>
</linearGradient>
<radialGradient id="paint2_radial_3_276" cx="0" cy="0" r="1" gradientUnits="userSpaceOnUse" gradientTransform="translate(165.245 543.576) rotate(90) scale(140.595 23688)">
<stop offset="0.0651351" stop-color="#AFA67F"/>
<stop offset="0.111758" stop-color="#160C03"/>
<stop offset="1" stop-color="#160C03"/>
</radialGradient>
<radialGradient id="paint3_radial_3_276" cx="0" cy="0" r="1" gradientUnits="userSpaceOnUse" gradientTransform="translate(13.4944 543.576) rotate(90) scale(140.595 23688)">
<stop offset="0.0651351" stop-color="#AFA67F"/>
<stop offset="0.111758" stop-color="#160C03"/>
<stop offset="1" stop-color="#160C03"/>
</radialGradient>
<radialGradient id="paint4_radial_3_276" cx="0" cy="0" r="1" gradientUnits="userSpaceOnUse" gradientTransform="translate(181.389 543.576) rotate(90) scale(140.595 23688)">
<stop offset="0.0651351" stop-color="#AFA67F"/>
<stop offset="0.111758" stop-color="#160C03"/>
<stop offset="1" stop-color="#160C03"/>
</radialGradient>
<radialGradient id="paint5_radial_3_276" cx="0" cy="0" r="1" gradientUnits="userSpaceOnUse" gradientTransform="translate(359.776 543.576) rotate(90) scale(140.595 23688)">
<stop offset="0.0651351" stop-color="#AFA67F"/>
<stop offset="0.111758" stop-color="#160C03"/>
<stop offset="1" stop-color="#160C03"/>
</radialGradient>
<radialGradient id="paint6_radial_3_276" cx="0" cy="0" r="1" gradientUnits="userSpaceOnUse" gradientTransform="translate(363.408 51.2809) rotate(180) scale(431.439 1628.26)">
<stop offset="0.241872" stop-color="#933630"/>
<stop offset="0.403879" stop-color="#3C2B23"/>
<stop offset="0.592205" stop-color="#C3C184"/>
<stop offset="0.72587" stop-color="#A9A671"/>
<stop offset="1" stop-color="#231F20"/>
</radialGradient>
<radialGradient id="paint7_radial_3_276" cx="0" cy="0" r="1" gradientUnits="userSpaceOnUse" gradientTransform="translate(346.457 130.766) rotate(-178.132) scale(391.69 1478.07)">
<stop stop-color="#371E1D"/>
<stop offset="0.443251" stop-color="#26221F"/>
<stop offset="0.610739" stop-color="#333327"/>
<stop offset="0.9496" stop-color="#23282D"/>
</radialGradient>
<linearGradient id="paint8_linear_3_276" x1="-15.6923" y1="235.677" x2="365.06" y2="467.437" gradientUnits="userSpaceOnUse">
<stop stop-color="#646041"/>
<stop offset="1" stop-color="#2C251B"/>
</linearGradient>
<radialGradient id="paint9_radial_3_276" cx="0" cy="0" r="1" gradientUnits="userSpaceOnUse" gradientTransform="translate(336.368 204.324) rotate(-178.881) scale(381.061 1438.07)">
<stop stop-color="#261913"/>
<stop offset="0.20376" stop-color="#A63B35"/>
<stop offset="0.387116" stop-color="#302921"/>
<stop offset="0.593044" stop-color="#D2D18E"/>
<stop offset="1" stop-color="#271E15"/>
</radialGradient>
<radialGradient id="paint10_radial_3_276" cx="0" cy="0" r="1" gradientUnits="userSpaceOnUse" gradientTransform="translate(7.037 207.687) scale(334.577 1425.02)">
<stop stop-color="#655546"/>
<stop offset="0.138227" stop-color="#B6A862"/>
<stop offset="0.241695" stop-color="#CFC27B"/>
<stop offset="0.348996" stop-color="#D7E6C8"/>
<stop offset="0.716883" stop-color="#D9665A"/>
<stop offset="0.851009" stop-color="#B96460"/>
<stop offset="1" stop-color="#3B312B"/>
</radialGradient>
<radialGradient id="paint11_radial_3_276" cx="0" cy="0" r="1" gradientUnits="userSpaceOnUse" gradientTransform="translate(7.037 207.687) scale(334.577 1425.02)">
<stop stop-color="#655546"/>
<stop offset="0.138227" stop-color="#B6A862"/>
<stop offset="0.241695" stop-color="#CFC27B"/>
<stop offset="0.348996" stop-color="#D7E6C8"/>
<stop offset="0.716883" stop-color="#D9665A"/>
<stop offset="0.851009" stop-color="#B96460"/>
<stop offset="1" stop-color="#3B312B"/>
</radialGradient>
<radialGradient id="paint12_radial_3_276" cx="0" cy="0" r="1" gradientUnits="userSpaceOnUse" gradientTransform="translate(7.037 207.687) scale(334.577 1425.02)">
<stop stop-color="#655546"/>
<stop offset="0.138227" stop-color="#B6A862"/>
<stop offset="0.241695" stop-color="#CFC27B"/>
<stop offset="0.348996" stop-color="#D7E6C8"/>
<stop offset="0.716883" stop-color="#D9665A"/>
<stop offset="0.851009" stop-color="#B96460"/>
<stop offset="1" stop-color="#3B312B"/>
</radialGradient>
<radialGradient id="paint13_radial_3_276" cx="0" cy="0" r="1" gradientUnits="userSpaceOnUse" gradientTransform="translate(7.037 207.687) scale(334.577 1425.02)">
<stop stop-color="#655546"/>
<stop offset="0.138227" stop-color="#B6A862"/>
<stop offset="0.241695" stop-color="#CFC27B"/>
<stop offset="0.348996" stop-color="#D7E6C8"/>
<stop offset="0.716883" stop-color="#D9665A"/>
<stop offset="0.851009" stop-color="#B96460"/>
<stop offset="1" stop-color="#3B312B"/>
</radialGradient>
<radialGradient id="paint14_radial_3_276" cx="0" cy="0" r="1" gradientUnits="userSpaceOnUse" gradientTransform="translate(7.037 207.687) scale(334.577 1425.02)">
<stop stop-color="#655546"/>
<stop offset="0.138227" stop-color="#B6A862"/>
<stop offset="0.241695" stop-color="#CFC27B"/>
<stop offset="0.348996" stop-color="#D7E6C8"/>
<stop offset="0.716883" stop-color="#D9665A"/>
<stop offset="0.851009" stop-color="#B96460"/>
<stop offset="1" stop-color="#3B312B"/>
</radialGradient>
<radialGradient id="paint15_radial_3_276" cx="0" cy="0" r="1" gradientUnits="userSpaceOnUse" gradientTransform="translate(7.037 207.687) scale(334.577 1425.02)">
<stop stop-color="#655546"/>
<stop offset="0.138227" stop-color="#B6A862"/>
<stop offset="0.241695" stop-color="#CFC27B"/>
<stop offset="0.348996" stop-color="#D7E6C8"/>
<stop offset="0.716883" stop-color="#D9665A"/>
<stop offset="0.851009" stop-color="#B96460"/>
<stop offset="1" stop-color="#3B312B"/>
</radialGradient>
</defs>
</svg>
